HIERARCHY
ROOT Hips
{
  OFFSET 5.72205e-005 65.662 3.42586
  CHANNELS 6 Xposition Yposition Zposition Zrotation Xrotation Yrotation
  JOINT Chest
  {
    OFFSET 0 8.7983 -4.7612
    CHANNELS 6 Xposition Yposition Zposition Zrotation Xrotation Yrotation
    JOINT Chest2
    {
      OFFSET 0 8.0291 0.4195
      CHANNELS 6 Xposition Yposition Zposition Zrotation Xrotation Yrotation
      JOINT Chest3
      {
        OFFSET 0 9.9351 -2.2114
        CHANNELS 6 Xposition Yposition Zposition Zrotation Xrotation Yrotation
        JOINT Neck
        {
          OFFSET 0 22.3885 -0.4656
          CHANNELS 6 Xposition Yposition Zposition Zrotation Xrotation Yrotation
          JOINT Head
          {
            OFFSET -0.0001 12.643 3.4389
            CHANNELS 6 Xposition Yposition Zposition Zrotation Xrotation Yrotation
            End Site
            {
              OFFSET 0.0001 17.6655 0.5274
            }
          }
        }
        JOINT LeftCollar
        {
          OFFSET 2.2603 21.606 7.4023
          CHANNELS 6 Xposition Yposition Zposition Zrotation Xrotation Yrotation
          JOINT LeftShoulder
          {
            OFFSET 13.5163 -1.1332 -5.0146
            CHANNELS 6 Xposition Yposition Zposition Zrotation Xrotation Yrotation
            JOINT LeftElbow
            {
              OFFSET -0.0995 -28.05 -0.2431
              CHANNELS 6 Xposition Yposition Zposition Zrotation Xrotation Yrotation
              JOINT LeftWrist
              {
                OFFSET 0.0679 -23.3996 -0.1402
                CHANNELS 6 Xposition Yposition Zposition Zrotation Xrotation Yrotation
                JOINT LeftFinger1
                {
                  OFFSET 0.7932 -9.069 2.5189
                  CHANNELS 6 Xposition Yposition Zposition Zrotation Xrotation Yrotation
                  JOINT LeftFinger11
                  {
                    OFFSET -0.8272 -3.3923 0.5977
                    CHANNELS 6 Xposition Yposition Zposition Zrotation Xrotation Yrotation
                    JOINT LeftFinger12
                    {
                      OFFSET -0.5649 -2.3158 0.4082
                      CHANNELS 6 Xposition Yposition Zposition Zrotation Xrotation Yrotation
                      End Site
                      {
                        OFFSET -0.4919 -1.6479 0.2673
                      }
                    }
                  }
                }
                JOINT LeftFinger2
                {
                  OFFSET 0.9159 -9.2044 0.2193
                  CHANNELS 6 Xposition Yposition Zposition Zrotation Xrotation Yrotation
                  JOINT LeftFinger21
                  {
                    OFFSET 0.0117 -4.1944 -0.0248
                    CHANNELS 6 Xposition Yposition Zposition Zrotation Xrotation Yrotation
                    JOINT LeftFinger22
                    {
                      OFFSET 0.0071 -2.3249 -0.0142
                      CHANNELS 6 Xposition Yposition Zposition Zrotation Xrotation Yrotation
                      End Site
                      {
                        OFFSET -0.1475 -2.0882 0.0028
                      }
                    }
                  }
                }
                JOINT LeftFinger3
                {
                  OFFSET 0.6113 -8.7231 -2.0637
                  CHANNELS 6 Xposition Yposition Zposition Zrotation Xrotation Yrotation
                  JOINT LeftFinger31
                  {
                    OFFSET -0.1927 -3.8059 -0.2383
                    CHANNELS 6 Xposition Yposition Zposition Zrotation Xrotation Yrotation
                    JOINT LeftFinger32
                    {
                      OFFSET -0.1091 -2.1688 -0.1362
                      CHANNELS 6 Xposition Yposition Zposition Zrotation Xrotation Yrotation
                      End Site
                      {
                        OFFSET -0.2358 -1.9176 -0.0906
                      }
                    }
                  }
                }
                JOINT LeftFinger4
                {
                  OFFSET -0.6151 -8.0947 -3.5641
                  CHANNELS 6 Xposition Yposition Zposition Zrotation Xrotation Yrotation
                  JOINT LeftFinger41
                  {
                    OFFSET -0.4882 -2.341 -0.6462
                    CHANNELS 6 Xposition Yposition Zposition Zrotation Xrotation Yrotation
                    JOINT LeftFinger42
                    {
                      OFFSET -0.3575 -1.7167 -0.4742
                      CHANNELS 6 Xposition Yposition Zposition Zrotation Xrotation Yrotation
                      End Site
                      {
                        OFFSET -0.4187 -1.5237 -0.3496
                      }
                    }
                  }
                }
                JOINT LeftFinger0
                {
                  OFFSET -1.42 -1.8761 1.4223
                  CHANNELS 6 Xposition Yposition Zposition Zrotation Xrotation Yrotation
                  JOINT LeftFinger01
                  {
                    OFFSET -1.1471 -3.4929 2.6334
                    CHANNELS 6 Xposition Yposition Zposition Zrotation Xrotation Yrotation
                    JOINT LeftFinger02
                    {
                      OFFSET -0.823 -2.3 1.6571
                      CHANNELS 6 Xposition Yposition Zposition Zrotation Xrotation Yrotation
                      End Site
                      {
                        OFFSET -0.5822 -1.6914 1.1582
                      }
                    }
                  }
                }
              }
            }
          }
        }
        JOINT RightCollar
        {
          OFFSET -2.2603 21.606 7.4023
          CHANNELS 6 Xposition Yposition Zposition Zrotation Xrotation Yrotation
          JOINT RightShoulder
          {
            OFFSET -13.5187 -1.1334 -5.0155
            CHANNELS 6 Xposition Yposition Zposition Zrotation Xrotation Yrotation
            JOINT RightElbow
            {
              OFFSET 0.0994 -28.0499 -0.2431
              CHANNELS 6 Xposition Yposition Zposition Zrotation Xrotation Yrotation
              JOINT RightWrist
              {
                OFFSET -0.0679 -23.3996 -0.1402
                CHANNELS 6 Xposition Yposition Zposition Zrotation Xrotation Yrotation
                JOINT RightFinger1
                {
                  OFFSET -0.7932 -9.0691 2.5189
                  CHANNELS 6 Xposition Yposition Zposition Zrotation Xrotation Yrotation
                  JOINT RightFinger11
                  {
                    OFFSET 0.8272 -3.3923 0.5977
                    CHANNELS 6 Xposition Yposition Zposition Zrotation Xrotation Yrotation
                    JOINT RightFinger12
                    {
                      OFFSET 0.565 -2.3158 0.4082
                      CHANNELS 6 Xposition Yposition Zposition Zrotation Xrotation Yrotation
                      End Site
                      {
                        OFFSET 0.4919 -1.6479 0.2673
                      }
                    }
                  }
                }
                JOINT RightFinger2
                {
                  OFFSET -0.916 -9.2044 0.2193
                  CHANNELS 6 Xposition Yposition Zposition Zrotation Xrotation Yrotation
                  JOINT RightFinger21
                  {
                    OFFSET -0.0117 -4.1944 -0.0248
                    CHANNELS 6 Xposition Yposition Zposition Zrotation Xrotation Yrotation
                    JOINT RightFinger22
                    {
                      OFFSET -0.0071 -2.3249 -0.0142
                      CHANNELS 6 Xposition Yposition Zposition Zrotation Xrotation Yrotation
                      End Site
                      {
                        OFFSET 0.1475 -2.0882 0.0028
                      }
                    }
                  }
                }
                JOINT RightFinger3
                {
                  OFFSET -0.6113 -8.7231 -2.0637
                  CHANNELS 6 Xposition Yposition Zposition Zrotation Xrotation Yrotation
                  JOINT RightFinger31
                  {
                    OFFSET 0.1927 -3.8059 -0.2383
                    CHANNELS 6 Xposition Yposition Zposition Zrotation Xrotation Yrotation
                    JOINT RightFinger32
                    {
                      OFFSET 0.1091 -2.1688 -0.1362
                      CHANNELS 6 Xposition Yposition Zposition Zrotation Xrotation Yrotation
                      End Site
                      {
                        OFFSET 0.2358 -1.9176 -0.0906
                      }
                    }
                  }
                }
                JOINT RightFinger4
                {
                  OFFSET 0.6151 -8.0947 -3.564
                  CHANNELS 6 Xposition Yposition Zposition Zrotation Xrotation Yrotation
                  JOINT RightFinger41
                  {
                    OFFSET 0.4882 -2.341 -0.6462
                    CHANNELS 6 Xposition Yposition Zposition Zrotation Xrotation Yrotation
                    JOINT RightFinger42
                    {
                      OFFSET 0.3574 -1.7166 -0.4742
                      CHANNELS 6 Xposition Yposition Zposition Zrotation Xrotation Yrotation
                      End Site
                      {
                        OFFSET 0.4187 -1.5237 -0.3496
                      }
                    }
                  }
                }
                JOINT RightFinger0
                {
                  OFFSET 1.4199 -1.8761 1.4221
                  CHANNELS 6 Xposition Yposition Zposition Zrotation Xrotation Yrotation
                  JOINT RightFinger01
                  {
                    OFFSET 1.1472 -3.4929 2.6336
                    CHANNELS 6 Xposition Yposition Zposition Zrotation Xrotation Yrotation
                    JOINT RightFinger02
                    {
                      OFFSET 0.8229 -2.3 1.6571
                      CHANNELS 6 Xposition Yposition Zposition Zrotation Xrotation Yrotation
                      End Site
                      {
                        OFFSET 0.5822 -1.6914 1.1582
                      }
                    }
                  }
                }
              }
            }
          }
        }
      }
    }
  }
  JOINT RightHip
  {
    OFFSET -9.412 3.9771 -0.7758
    CHANNELS 6 Xposition Yposition Zposition Zrotation Xrotation Yrotation
    JOINT RightKnee
    {
      OFFSET -0.7531 -40.938 0
      CHANNELS 6 Xposition Yposition Zposition Zrotation Xrotation Yrotation
      JOINT RightAnkle
      {
        OFFSET 0 -40.1986 0
        CHANNELS 6 Xposition Yposition Zposition Zrotation Xrotation Yrotation
        JOINT RightToe
        {
          OFFSET 0 -4.4182 9.239
          CHANNELS 6 Xposition Yposition Zposition Zrotation Xrotation Yrotation
          End Site
          {
            OFFSET 0 0 6.1981
          }
        }
      }
    }
  }
  JOINT LeftHip
  {
    OFFSET 9.4119 3.9773 -0.7758
    CHANNELS 6 Xposition Yposition Zposition Zrotation Xrotation Yrotation
    JOINT LeftKnee
    {
      OFFSET 0.7532 -40.9383 0
      CHANNELS 6 Xposition Yposition Zposition Zrotation Xrotation Yrotation
      JOINT LeftAnkle
      {
        OFFSET 0 -40.1986 0
        CHANNELS 6 Xposition Yposition Zposition Zrotation Xrotation Yrotation
        JOINT LeftToe
        {
          OFFSET 0 -4.4182 9.239
          CHANNELS 6 Xposition Yposition Zposition Zrotation Xrotation Yrotation
          End Site
          {
            OFFSET 0 0 6.1981
          }
        }
      }
    }
  }
}
MOTION
Frames:	4
Frame Time:	0.0333333
5.72205e-005 65.662 3.42586 0 0 -0 0 8.7983 -4.7612 0 0 -0 0 8.0291 0.4195 0 0 -0 0 9.9351 -2.2114 0 0 -0 0 22.3885 -0.4656 0 0 -0 -0.0001 12.643 3.4389 0 0 -0 2.2603 21.606 7.4023 0 0 -12.5014 13.5163 -1.1332 -5.0146 88.1196 14.2451 10.6914 -0.0995 -28.05 -0.2431 -0.00160068 -0.00239207 0.000740045 0.0679 -23.3996 -0.1402 -8.4365e-005 7.00714e-005 -9.52055e-007 0.7932 -9.069 2.5189 9.93923e-017 -1.98785e-016 -1.59028e-015 -0.8272 -3.3923 0.5977 9.93923e-017 -5.96354e-016 -1.59028e-015 -0.5649 -2.3158 0.4082 -9.93923e-017 -5.96354e-016 -1.59028e-015 0.9159 -9.2044 0.2193 9.93923e-017 -1.98785e-016 -1.59028e-015 0.0117 -4.1944 -0.0248 -0.0128176 0.00232552 8.52707e-005 0.0071 -2.3249 -0.0142 9.93923e-017 5.96354e-016 -0 0.6113 -8.7231 -2.0637 9.93923e-017 -1.98785e-016 -1.59028e-015 -0.1927 -3.8059 -0.2383 -0.0160551 0.00299681 0.000857156 -0.1091 -2.1688 -0.1362 -2.48481e-016 0 3.18055e-015 -0.6151 -8.0947 -3.5641 9.93923e-017 -1.98785e-016 -1.59028e-015 -0.4882 -2.341 -0.6462 -0.0125865 0.0031206 0.00282719 -0.3575 -1.7167 -0.4742 0 1.98785e-016 -0 -1.42 -1.8761 1.4223 9.93923e-017 -1.98785e-016 -1.59028e-015 -1.1471 -3.4929 2.6334 9.93923e-017 -5.96354e-016 -1.59028e-015 -0.823 -2.3 1.6571 -9.93923e-017 -5.96354e-016 -1.59028e-015 -2.2603 21.606 7.4023 -0.865644 0.16582 7.03859 -13.5187 -1.1334 -5.0155 -88.0329 10.2057 -10.5567 0.0994 -28.0499 -0.2431 0.0015593 -0.00248883 -0.000788628 -0.0679 -23.3996 -0.1402 7.87605e-005 4.10553e-005 1.24965e-005 -0.7932 -9.0691 2.5189 -3.97569e-016 -7.95139e-016 3.18055e-015 0.8272 -3.3923 0.5977 -1.98785e-016 -3.97569e-016 3.18055e-015 0.565 -2.3158 0.4082 -1.98785e-016 0 3.18055e-015 -0.916 -9.2044 0.2193 -3.97569e-016 -7.95139e-016 3.18055e-015 -0.0117 -4.1944 -0.0248 0.0129473 0.00231697 -8.70038e-005 -0.0071 -2.3249 -0.0142 9.93923e-017 -7.95139e-016 1.59028e-015 -0.6113 -8.7231 -2.0637 -3.97569e-016 -7.95139e-016 3.18055e-015 0.1927 -3.8059 -0.2383 0.0163314 0.00303369 -0.000872333 0.1091 -2.1688 -0.1362 3.97569e-016 7.95139e-016 -3.18055e-015 0.6151 -8.0947 -3.564 -3.97569e-016 -7.95139e-016 3.18055e-015 0.4882 -2.341 -0.6462 0.0145763 0.00367772 -0.00326275 0.3574 -1.7166 -0.4742 9.93923e-017 -3.97569e-016 -0 1.4199 -1.8761 1.4221 -3.97569e-016 -7.95139e-016 3.18055e-015 1.1472 -3.4929 2.6336 -1.98785e-016 -3.97569e-016 3.18055e-015 0.8229 -2.3 1.6571 -1.98785e-016 0 3.18055e-015 -9.412 3.9771 -0.7758 3.42482 1.32465 -0.0626183 -0.7531 -40.938 0 0.000117508 0.717283 0.000978199 0 -40.1986 0 -3.4257 -2.04197 -0.0604716 8.88178e-016 -4.4182 9.239 6.47761e-025 0 -0 9.4119 3.9773 -0.7758 -3.42483 1.34017 0.0627307 0.7532 -40.9383 -2.22045e-016 -0.000193936 0.682302 -0.0013703 -8.88179e-016 -40.1986 0 3.42574 -2.02253 0.0595886 -8.88178e-016 -4.4182 9.239 -8.45714e-024 0 -7.40531e-025 
0.0412665 20.8946 -0.874765 -180 -40.0083 -180 0 8.7983 -4.7612 0.770571 16.1635 -0.511336 6.93889e-018 8.0291 0.4195 1.81478 32.3172 -1.34628 -5.55112e-017 9.9351 -2.2114 1.81476 32.317 -1.34626 0 22.3885 -0.4656 -7.99632e-005 27.5898 3.91538e-005 -0.0001 12.643 3.4389 4.50683e-007 8.11507 -5.31613e-007 2.2603 21.606 7.4023 -10.1078 -0.796705 -21.498 13.5163 -1.1332 -5.0146 40.6892 4.94904 16.0775 -0.0995 -28.05 -0.2431 -16.8337 -53.6393 38.2083 0.0679 -23.3996 -0.1402 -24.7288 14.4799 -20.8473 0.7932 -9.069 2.5189 -3.18055e-015 -3.18055e-015 4.77083e-015 -0.8272 -3.3923 0.5977 -7.37857e-006 5.61033e-007 -8.87714e-006 -0.5649 -2.3158 0.4082 3.18055e-015 0 1.59028e-015 0.9159 -9.2044 0.2193 -3.18055e-015 -3.18055e-015 4.77083e-015 0.0117 -4.1944 -0.0248 -0.0128055 0.00233689 8.82744e-005 0.0071 -2.3249 -0.0142 6.36111e-015 -6.36111e-015 -3.18055e-015 0.6113 -8.7231 -2.0637 -3.18055e-015 -3.18055e-015 4.77083e-015 -0.1927 -3.8059 -0.2383 -0.0160344 0.00299247 0.000853022 -0.1091 -2.1688 -0.1362 -3.54009e-006 2.65358e-007 1.35299e-007 -0.6151 -8.0947 -3.5641 -3.18055e-015 -3.18055e-015 4.77083e-015 -0.4882 -2.341 -0.6462 -0.012589 0.00312748 0.00282319 -0.3575 -1.7167 -0.4742 -9.71641e-006 3.22642e-006 -8.78475e-006 -1.42 -1.8761 1.4223 -3.18055e-015 -3.18055e-015 4.77083e-015 -1.1471 -3.4929 2.6334 -7.37857e-006 5.61033e-007 -8.87714e-006 -0.823 -2.3 1.6571 3.18055e-015 0 1.59028e-015 -2.2603 21.606 7.4023 9.2217 -0.768899 16.0172 -13.5187 -1.1334 -5.0155 -40.789 2.62387 -11.987 0.0994 -28.0499 -0.2431 18.2031 -53.2619 -37.6379 -0.0679 -23.3996 -0.1402 24.1746 14.1017 21.751 -0.7932 -9.0691 2.5189 3.18055e-015 -9.54166e-015 1.59028e-015 0.8272 -3.3923 0.5977 -6.36111e-015 -6.36111e-015 -1.59028e-015 0.565 -2.3158 0.4082 -3.18055e-015 -3.18055e-015 1.59028e-015 -0.916 -9.2044 0.2193 3.18055e-015 -9.54166e-015 1.59028e-015 -0.0117 -4.1944 -0.0248 0.0129542 0.00231614 -8.61343e-005 -0.0071 -2.3249 -0.0142 -3.18055e-015 3.18055e-015 1.59028e-015 -0.6113 -8.7231 -2.0637 3.18055e-015 -9.54166e-015 1.59028e-015 0.1927 -3.8059 -0.2383 0.0163498 0.00303773 -0.000866229 0.1091 -2.1688 -0.1362 -3.18055e-015 3.18055e-015 1.59028e-015 0.6151 -8.0947 -3.564 3.18055e-015 -9.54166e-015 1.59028e-015 0.4882 -2.341 -0.6462 0.0145624 0.00368632 -0.00325502 0.3574 -1.7166 -0.4742 3.53113e-031 -6.36111e-015 3.18055e-015 1.4199 -1.8761 1.4221 3.18055e-015 -9.54166e-015 1.59028e-015 1.1472 -3.4929 2.6336 -6.36111e-015 -6.36111e-015 -1.59028e-015 0.8229 -2.3 1.6571 -3.18055e-015 -3.18055e-015 1.59028e-015 -9.412 3.9771 -0.7758 -123.032 -70.058 -145.924 -0.7531 -40.938 8.88178e-015 68.2008 26.8675 -93.7662 0 -40.1986 0 0.710073 3.44278 -5.8686 -7.10543e-015 -4.4182 9.239 -0 -4.77083e-015 -0 9.4119 3.9773 -0.7758 127.331 -70.3942 147.925 0.7532 -40.9383 1.77636e-015 -64.4536 15.0081 53.6387 0 -40.1986 0 2.19261 4.28397 5.15638 -3.55271e-015 -4.4182 9.239 -6.19681e-006 9.68622e-006 1.43389e-005 
0.0197665 8.44605 -3.97794 -180 -17.2561 -180 0 8.7983 -4.7612 0.92971 18.806 -0.665544 0 8.0291 0.4195 2.31124 37.5955 -1.83889 -5.55112e-017 9.9351 -2.2114 2.31121 37.5952 -1.83886 -4.44089e-016 22.3885 -0.4656 -0.000114088 32.5296 6.05289e-005 -0.0001 12.643 3.4389 -7.29387e-008 8.29297 3.24556e-008 2.2603 21.606 7.4023 -11.9982 -0.859603 -23.0778 13.5163 -1.1332 -5.0146 33.3811 2.85073 16.4929 -0.0995 -28.05 -0.2431 -23.4821 -61.9177 40.2052 0.0679 -23.3996 -0.1402 -28.9417 16.6705 -24.1997 0.7932 -9.069 2.5189 -1.59028e-015 1.59028e-014 -1.59028e-014 -0.8272 -3.3923 0.5977 -3.18055e-015 1.90833e-014 -9.54166e-015 -0.5649 -2.3158 0.4082 3.18055e-015 1.27222e-014 -3.18055e-015 0.9159 -9.2044 0.2193 -1.59028e-015 1.59028e-014 -1.59028e-014 0.0117 -4.1944 -0.0248 -0.0128141 0.00232466 7.99945e-005 0.0071 -2.3249 -0.0142 1.59028e-015 1.27222e-014 -0 0.6113 -8.7231 -2.0637 -1.59028e-015 1.59028e-014 -1.59028e-014 -0.1927 -3.8059 -0.2383 -0.0160585 0.0029955 0.000859331 -0.1091 -2.1688 -0.1362 -1.43125e-014 -6.36111e-015 -9.54166e-015 -0.6151 -8.0947 -3.5641 -1.59028e-015 1.59028e-014 -1.59028e-014 -0.4882 -2.341 -0.6462 -0.0125398 0.00311072 0.00281387 -0.3575 -1.7167 -0.4742 7.95139e-015 -3.18055e-015 -3.18055e-015 -1.42 -1.8761 1.4223 -1.59028e-015 1.59028e-014 -1.59028e-014 -1.1471 -3.4929 2.6334 -3.18055e-015 1.90833e-014 -9.54166e-015 -0.823 -2.3 1.6571 3.18055e-015 1.27222e-014 -3.18055e-015 -2.2603 21.606 7.4023 11.1322 -0.853856 17.615 -13.5187 -1.1334 -5.0155 -33.3984 1.06912 -11.9785 0.0994 -28.0499 -0.2431 25.3176 -61.4834 -39.1622 -0.0679 -23.3996 -0.1402 28.3126 16.2592 25.2579 -0.7932 -9.0691 2.5189 -4.77083e-015 1.27222e-014 6.36111e-015 0.8272 -3.3923 0.5977 -4.77083e-015 -1.76996e-007 6.36111e-015 0.565 -2.3158 0.4082 -2.23076e-006 4.90197e-006 7.98444e-007 -0.916 -9.2044 0.2193 -4.77083e-015 1.27222e-014 6.36111e-015 -0.0117 -4.1944 -0.0248 0.0129421 0.00232084 -8.19417e-005 -0.0071 -2.3249 -0.0142 -3.18055e-015 1.27222e-014 -3.18055e-015 -0.6113 -8.7231 -2.0637 -4.77083e-015 1.27222e-014 6.36111e-015 0.1927 -3.8059 -0.2383 0.0163436 0.00304346 -0.000862047 0.1091 -2.1688 -0.1362 -1.59028e-015 6.36111e-015 -0 0.6151 -8.0947 -3.564 -4.77083e-015 1.27222e-014 6.36111e-015 0.4882 -2.341 -0.6462 0.0145637 0.00368394 -0.00325761 0.3574 -1.7166 -0.4742 -3.18055e-015 -6.36111e-015 3.18055e-015 1.4199 -1.8761 1.4221 -4.77083e-015 1.27222e-014 6.36111e-015 1.1472 -3.4929 2.6336 -4.77083e-015 -1.76996e-007 6.36111e-015 0.8229 -2.3 1.6571 -2.23076e-006 4.90197e-006 7.98444e-007 -9.412 3.9771 -0.7758 -133.925 -53.2496 -155.282 -0.7531 -40.938 4.44089e-016 79.4737 15.5449 -96.8563 8.88179e-016 -40.1986 0 1.65713 4.83155 -6.45537 8.88179e-016 -4.4182 9.239 -9.25505e-008 8.77048e-007 -6.82978e-006 9.4119 3.9773 -0.7758 136.927 -53.421 156.678 0.7532 -40.9383 1.33227e-015 -78.0163 13.9444 63.239 -3.55271e-015 -40.1986 -7.10543e-015 1.56808 4.91309 5.35607 0 -4.4182 9.239 -3.53113e-031 3.18055e-015 6.36111e-015 
0.030902 11.667 -3.42233 -180 -23.2676 -180 -3.46945e-018 8.7983 -4.7612 0.887932 18.135 -0.623959 -2.08167e-017 8.0291 0.4195 2.17521 36.2556 -1.70198 -1.66533e-016 9.9351 -2.2114 2.17518 36.2553 -1.70196 -1.11022e-016 22.3885 -0.4656 -0.000108416 31.9129 5.7408e-005 -0.0001 12.643 3.4389 -6.98339e-007 6.52047 -6.47978e-007 2.2603 21.606 7.4023 -11.8369 -0.747837 -22.837 13.5163 -1.1332 -5.0146 35.5083 3.46157 16.4224 -0.0995 -28.05 -0.2431 -21.1266 -59.7717 40.3248 0.0679 -23.3996 -0.1402 -28.0595 15.934 -23.4684 0.7932 -9.069 2.5189 -5.99974e-007 -7.7136e-006 -2.03896e-006 -0.8272 -3.3923 0.5977 3.18055e-015 3.18055e-015 -0 -0.5649 -2.3158 0.4082 5.99974e-007 7.7136e-006 2.03896e-006 0.9159 -9.2044 0.2193 -5.99974e-007 -7.7136e-006 -2.03896e-006 0.0117 -4.1944 -0.0248 -0.0128105 0.00233587 8.74746e-005 0.0071 -2.3249 -0.0142 -9.54166e-015 1.27222e-014 -6.36111e-015 0.6113 -8.7231 -2.0637 -5.99974e-007 -7.7136e-006 -2.03896e-006 -0.1927 -3.8059 -0.2383 -0.0160415 0.00300119 0.000859113 -0.1091 -2.1688 -0.1362 6.36111e-015 6.36111e-015 -0 -0.6151 -8.0947 -3.5641 -5.99974e-007 -7.7136e-006 -2.03896e-006 -0.4882 -2.341 -0.6462 -0.0125729 0.00312886 0.00283043 -0.3575 -1.7167 -0.4742 -3.18055e-015 -6.36111e-015 6.36111e-015 -1.42 -1.8761 1.4223 -5.99974e-007 -7.7136e-006 -2.03896e-006 -1.1471 -3.4929 2.6334 3.18055e-015 3.18055e-015 -0 -0.823 -2.3 1.6571 5.99974e-007 7.7136e-006 2.03896e-006 -2.2603 21.606 7.4023 10.9979 -0.735316 17.4009 -13.5187 -1.1334 -5.0155 -35.6041 1.52319 -12.0298 0.0994 -28.0499 -0.2431 22.7569 -59.3372 -39.4893 -0.0679 -23.3996 -0.1402 27.4991 15.5552 24.4711 -0.7932 -9.0691 2.5189 -1.27222e-014 -9.54166e-015 9.54166e-015 0.8272 -3.3923 0.5977 -1.27222e-014 -1.27222e-014 1.27222e-014 0.565 -2.3158 0.4082 -2.54444e-014 -1.59028e-014 1.59028e-014 -0.916 -9.2044 0.2193 -1.27222e-014 -9.54166e-015 9.54166e-015 -0.0117 -4.1944 -0.0248 0.0129482 0.00232275 -8.40178e-005 -0.0071 -2.3249 -0.0142 3.53113e-031 3.18055e-015 -6.36111e-015 -0.6113 -8.7231 -2.0637 -1.27222e-014 -9.54166e-015 9.54166e-015 0.1927 -3.8059 -0.2383 0.0163283 0.00303398 -0.000878023 0.1091 -2.1688 -0.1362 -6.36111e-015 1.59028e-014 -0 0.6151 -8.0947 -3.564 -1.27222e-014 -9.54166e-015 9.54166e-015 0.4882 -2.341 -0.6462 0.0146021 0.0036907 -0.0032701 0.3574 -1.7166 -0.4742 3.18055e-015 -1.27222e-014 3.18055e-015 1.4199 -1.8761 1.4221 -1.27222e-014 -9.54166e-015 9.54166e-015 1.1472 -3.4929 2.6336 -1.27222e-014 -1.27222e-014 1.27222e-014 0.8229 -2.3 1.6571 -2.54444e-014 -1.59028e-014 1.59028e-014 -9.412 3.9771 -0.7758 -132.476 -57.4069 -154.353 -0.7531 -40.938 0 76.6664 18.4152 -96.5131 8.88179e-016 -40.1986 -7.10543e-015 1.49332 4.5567 -6.38101 1.77636e-015 -4.4182 9.239 4.77083e-015 1.90833e-014 -0 9.4119 3.9773 -0.7758 135.634 -57.5503 155.714 0.7532 -40.9383 -8.88178e-016 -74.8731 14.193 60.8598 -7.10543e-015 -40.1986 -7.10543e-015 1.71542 4.67986 5.30369 0 -4.4182 9.239 -8.82781e-032 3.18055e-015 1.59028e-015 
